<!DOCTYPE svg PUBLIC "-//W3C//DTD SVG 20010904//EN" "http://www.w3.org/TR/2001/REC-SVG-20010904/DTD/svg10.dtd">
<svg version="1.0" xmlns="http://www.w3.org/2000/svg" width="763px" height="1020px" viewBox="0 0 7630 10200" preserveAspectRatio="xMidYMid meet">
<g id="layer101" fill="#000000" stroke="none">
 <path d="M1129 9230 c-519 -385 -956 -714 -971 -730 -18 -19 -28 -42 -28 -60 0 -65 16 -72 635 -315 319 -124 584 -230 588 -235 5 -4 -29 -125 -76 -269 -49 -152 -82 -272 -79 -286 4 -23 1832 -2037 1886 -2079 20 -15 121 -31 553 -87 290 -37 547 -71 569 -74 l42 -6 -234 -474 c-162 -329 -234 -485 -234 -508 0 -27 21 -61 110 -176 61 -79 107 -148 103 -154 -4 -6 -353 -420 -776 -921 -424 -500 -776 -921 -784 -936 -12 -26 -1 -85 127 -686 77 -363 148 -674 157 -692 21 -41 77 -61 114 -42 13 7 106 73 206 147 99 73 185 133 190 133 5 0 60 -135 123 -300 62 -165 122 -314 131 -330 22 -35 74 -49 113 -28 14 7 393 493 849 1088 l823 1075 1043 411 c574 227 1051 419 1060 428 14 15 16 78 19 621 l2 603 -22 26 c-15 16 -180 95 -472 226 -248 110 -451 202 -452 203 -2 1 -59 1109 -128 2462 -69 1353 -128 2493 -132 2534 -5 64 -10 79 -34 103 -38 38 -87 38 -122 1 -17 -19 -74 -164 -182 -463 -87 -239 -161 -439 -165 -443 -7 -7 -736 313 -752 331 -4 4 22 81 57 172 128 330 129 336 111 376 -9 19 -28 39 -43 44 -16 6 -565 10 -1503 10 l-1478 0 -944 -700z m3731 459 c-143 -361 -910 -2393 -910 -2409 0 -28 52 -80 82 -81 40 -2 52 2 75 24 14 14 155 372 383 972 198 522 362 951 364 953 7 7 761 -338 759 -347 -7 -29 -1277 -3517 -1283 -3524 -10 -11 -1131 132 -1149 147 -39 30 -1781 1948 -1781 1960 0 12 393 1213 691 2114 l81 242 1354 0 1354 0 -20 -51z m-3186 -865 c-136 -412 -248 -750 -249 -752 -3 -3 -966 373 -994 388 -10 5 60 63 235 193 1056 784 1248 926 1251 924 1 -2 -108 -340 -243 -753z m4467 -1787 c61 -1193 109 -2171 106 -2173 -4 -4 -1718 365 -1726 372 -2 2 333 931 745 2064 l749 2060 8 -77 c4 -43 57 -1054 118 -2246z m-795 -2173 c616 -134 864 -191 862 -200 -6 -25 -1013 -2114 -1019 -2114 -4 0 -278 354 -609 787 l-603 787 234 468 c198 397 237 468 253 464 10 -3 407 -89 882 -192z m1464 -432 l395 -177 3 -502 2 -501 -217 -86 c-1226 -482 -1588 -624 -1591 -622 -6 7 992 2066 1002 2066 6 0 189 -80 406 -178z m-2201 -1439 c254 -331 461 -606 461 -610 -1 -4 -393 -297 -873 -650 -480 -354 -975 -719 -1102 -812 -126 -94 -232 -170 -235 -171 -3 0 -59 249 -124 554 l-118 554 748 885 c701 829 750 885 765 869 10 -9 224 -288 478 -619z m60 -1180 c-25 -32 -278 -363 -563 -736 -285 -373 -522 -675 -526 -670 -13 15 -191 496 -185 501 21 21 1311 969 1314 966 2 -2 -16 -30 -40 -61z"/>
 </g>

</svg>